<svg width="1600" height="900" viewBox="0 0 1600 900" fill="none" xmlns="http://www.w3.org/2000/svg">
  <defs>
    <linearGradient id="gradient" x1="0" y1="0" x2="1" y2="1">
      <stop offset="0%" stop-color="#0F172A" />
      <stop offset="50%" stop-color="#1D4ED8" />
      <stop offset="100%" stop-color="#0EA5E9" />
    </linearGradient>
    <pattern id="grid" patternUnits="userSpaceOnUse" width="80" height="80" patternTransform="scale(1)">
      <path d="M 80 0 L 0 0 0 80" fill="none" stroke="rgba(255,255,255,0.15)" stroke-width="2" />
    </pattern>
    <filter id="shadow" x="-50%" y="-50%" width="200%" height="200%">
      <feDropShadow dx="0" dy="8" stdDeviation="16" flood-color="rgba(15, 23, 42, 0.45)" />
    </filter>
  </defs>
  <rect width="1600" height="900" fill="url(#gradient)" />
  <rect width="1600" height="900" fill="url(#grid)" />
  <g filter="url(#shadow)">
    <circle cx="800" cy="420" r="180" fill="#F59E0B" />
    <circle cx="800" cy="420" r="120" fill="#FEF3C7" />
    <path d="M800 210C708 210 633 284 633 375C633 465 709 592 800 720C891 592 967 465 967 375C967 284 892 210 800 210Z" fill="#DC2626" />
    <circle cx="800" cy="375" r="70" fill="#FDE68A" stroke="#7C2D12" stroke-width="16" />
  </g>
  <text x="800" y="790" text-anchor="middle" font-family="'Inter', 'Segoe UI', sans-serif" font-size="72" font-weight="600" fill="rgba(255,255,255,0.9)">
    TK Kartikasari
  </text>
  <text x="800" y="850" text-anchor="middle" font-family="'Inter', 'Segoe UI', sans-serif" font-size="32" fill="rgba(255,255,255,0.75)">
    Lihat lokasi di Google Maps
  </text>
</svg>
